<?xml version="1.0" encoding="UTF-8"?>
<svg width="10px" height="10px" viewBox="0 0 10 10" version="1.1" xmlns="http://www.w3.org/2000/svg" xmlns:xlink="http://www.w3.org/1999/xlink">
    <!-- Generator: Sketch 59.1 (86144) - https://sketch.com -->
    <title>关闭</title>
    <desc>Created with Sketch.</desc>
    <g id="掌汇大宗" stroke="none" stroke-width="1" fill="none" fill-rule="evenodd">
        <g id="08专栏-发布-添加超链接" transform="translate(-305.000000, -204.000000)" fill-rule="nonzero">
            <g id="关闭" transform="translate(298.000000, 197.000000)">
                <rect id="矩形" fill="#000000" opacity="0" x="0" y="0" width="24" height="24"></rect>
                <path d="M12.9333333,12 L16.4666667,8.46666667 C16.7333333,8.2 16.7333333,7.8 16.4666667,7.53333333 C16.2,7.26666666 15.8,7.26666666 15.5333333,7.53333333 L12,11.0666667 L8.46666667,7.53333333 C8.2,7.26666666 7.8,7.26666666 7.53333333,7.53333333 C7.26666666,7.8 7.26666666,8.2 7.53333333,8.46666667 L11.0666667,12 L7.53333333,15.5333333 C7.26666666,15.8 7.26666666,16.2 7.53333333,16.4666667 C7.66666666,16.6 7.8,16.6666667 8,16.6666667 C8.2,16.6666667 8.33333332,16.6 8.46666667,16.4666667 L12,12.9333333 L15.5333333,16.4666667 C15.6666667,16.6 15.8666667,16.6666667 16,16.6666667 C16.1333333,16.6666667 16.3333333,16.6 16.4666667,16.4666667 C16.7333333,16.2 16.7333333,15.8 16.4666667,15.5333333 L12.9333333,12 Z" id="路径" fill="#333333"></path>
            </g>
        </g>
    </g>
</svg>