<?xml version="1.0" encoding="UTF-8"?>
<svg width="24px" height="24px" viewBox="0 0 24 24" version="1.1" xmlns="http://www.w3.org/2000/svg" xmlns:xlink="http://www.w3.org/1999/xlink">
    <!-- Generator: Sketch 59.1 (86144) - https://sketch.com -->
    <title>删除封面</title>
    <desc>Created with Sketch.</desc>
    <g id="掌汇大宗" stroke="none" stroke-width="1" fill="none" fill-rule="evenodd">
        <g id="icon" transform="translate(-269.000000, -177.000000)" fill-rule="nonzero">
            <g id="删除封面" transform="translate(281.000000, 189.000000) scale(1, -1) translate(-281.000000, -189.000000) translate(269.000000, 177.000000)">
                <rect id="矩形" fill="#000000" opacity="0" x="0" y="0" width="24" height="24"></rect>
                <rect id="矩形" fill="#FFFFFF" x="0" y="0" width="24" height="24" rx="4"></rect>
                <g id="删-除" transform="translate(12.000000, 12.000000) scale(1, -1) translate(-12.000000, -12.000000) translate(4.500000, 4.500000)">
                    <rect id="矩形" fill="#000000" opacity="0" x="0" y="0" width="15" height="15"></rect>
                    <path d="M7.58188477,0.316538086 C6.11266113,0.316538086 4.92021973,1.48129395 4.86947754,2.94358887 L1.44437988,2.94358887 C1.06382813,2.94358887 0.752460937,3.25265625 0.752460937,3.63552246 C0.752460937,4.01608887 1.06152832,4.3274707 1.44439453,4.3274707 L2.20782715,4.3274707 L2.20782715,12.0679395 C2.20782715,13.5210059 3.19268555,14.708833 4.4105127,14.708833 L10.6148584,14.708833 C11.8303857,14.708833 12.8175439,13.5279346 12.8175439,12.0679395 L12.8175439,4.33208496 L13.5094775,4.33208496 C13.8900439,4.33208496 14.2014111,4.02300293 14.2014111,3.64013672 C14.2014111,3.25957031 13.8923438,2.94820313 13.5094775,2.94820313 L10.2896631,2.94820313 C10.245835,1.48130859 9.05109375,0.316538086 7.58188477,0.316538086 L7.58188477,0.316538086 Z M6.16571777,2.94358887 C6.21645996,2.19399902 6.82768066,1.61277832 7.58418457,1.61277832 C8.34068848,1.61277832 8.95190918,2.19629883 8.9957373,2.94358887 L6.16571777,2.94358887 Z M4.40819824,13.4149072 C3.97688965,13.4149072 3.50175293,12.8613574 3.50175293,12.0679395 L3.50175293,4.33208496 L11.5190039,4.33208496 L11.5190039,12.0748535 C11.5190039,12.8659717 11.0438672,13.4218359 10.6125586,13.4218359 L4.40819824,13.4218359 L4.40819824,13.4149072 Z M5.3377002,11.751958 C5.65366699,11.751958 5.91430664,11.4359766 5.91430664,11.0392676 L5.91430664,6.97297852 C5.91430664,6.57626953 5.65598145,6.26027344 5.3377002,6.26027344 C5.0217041,6.26027344 4.7610791,6.57626953 4.7610791,6.97297852 L4.7610791,11.0392676 C4.7610791,11.4336621 5.01479004,11.751958 5.3377002,11.751958 Z M7.42504395,11.751958 C7.74102539,11.751958 8.00165039,11.4359766 8.00165039,11.0392676 L8.00165039,6.97297852 C8.00165039,6.57626953 7.7433252,6.26027344 7.42504395,6.26027344 C7.1090625,6.26027344 6.84842285,6.57626953 6.84842285,6.97297852 L6.84842285,11.0392676 C6.84842285,11.4336621 7.1090625,11.751958 7.42504395,11.751958 L7.42504395,11.751958 Z M9.62078613,11.751958 C9.93676758,11.751958 10.1974072,11.4359766 10.1974072,11.0392676 L10.1974072,6.97297852 C10.1974072,6.57626953 9.93908203,6.26027344 9.62078613,6.26027344 C9.30480469,6.26027344 9.04417969,6.57626953 9.04417969,6.97297852 L9.04417969,11.0392676 C9.04417969,11.4336621 9.29557617,11.751958 9.62078613,11.751958 Z" id="形状" fill="#666666"></path>
                </g>
            </g>
        </g>
    </g>
</svg>