<?xml version="1.0" encoding="UTF-8"?>
<svg width="26px" height="26px" viewBox="0 0 26 26" version="1.1" xmlns="http://www.w3.org/2000/svg" xmlns:xlink="http://www.w3.org/1999/xlink">
    <!-- Generator: Sketch 59.1 (86144) - https://sketch.com -->
    <title>编辑</title>
    <desc>Created with Sketch.</desc>
    <g id="掌汇大宗" stroke="none" stroke-width="1" fill="none" fill-rule="evenodd">
        <g id="09专栏-发布-添加超链接" transform="translate(-239.000000, -1208.000000)" fill-rule="nonzero">
            <g id="编辑" transform="translate(252.000000, 1221.000000) scale(1, -1) translate(-252.000000, -1221.000000) translate(240.000000, 1209.000000)">
                <rect id="矩形" fill="#000000" opacity="0" x="0" y="0" width="24" height="24"></rect>
                <rect id="矩形" stroke="#EEEEEE" x="0" y="0" width="24" height="24" rx="4"></rect>
                <g transform="translate(12.500000, 12.500000) scale(1, -1) translate(-12.500000, -12.500000) translate(5.000000, 5.000000)">
                    <rect id="矩形" fill="#000000" opacity="0" x="0" y="0" width="15" height="15"></rect>
                    <path d="M5.90892857,9.32035714 L10.7614286,4.49464286 C10.9392857,4.31785715 10.9714286,3.95142857 10.8835714,3.86357143 L9.57642857,2.56714286 C9.42459418,2.43215181 9.19576296,2.43215181 9.04392857,2.56714286 L4.07142857,7.50321429 L4.08214286,9.32142857 L5.90892857,9.32035714 Z M6.61607143,11.0346429 L2.37535714,11.0357143 L2.355,6.79392857 L7.83535714,1.35 C8.65589907,0.550145553 9.96445807,0.550145553 10.785,1.35 L12.0921429,2.6475 C12.9064286,3.45857143 12.7789286,4.90607143 11.97,5.71071429 L6.61607143,11.0346429 L6.61607143,11.0346429 Z" id="形状" fill="#727484"></path>
                    <path d="M2.67857143,13.7142857 C2.37231709,13.7143257 2.08930929,13.550964 1.93617056,13.2857466 C1.78303184,13.0205293 1.78303184,12.6937564 1.93617056,12.4285391 C2.08930929,12.1633217 2.37231709,11.99996 2.67857143,12 L11.7857143,12 C12.0919686,11.99996 12.3749764,12.1633217 12.5281152,12.4285391 C12.6812539,12.6937564 12.6812539,13.0205293 12.5281152,13.2857466 C12.3749764,13.550964 12.0919686,13.7143257 11.7857143,13.7142857 L2.67857143,13.7142857 Z" id="路径" fill="#666666"></path>
                </g>
            </g>
        </g>
    </g>
</svg>