<?xml version="1.0" encoding="UTF-8"?>
<svg width="20px" height="20px" viewBox="0 0 20 20" version="1.1" xmlns="http://www.w3.org/2000/svg" xmlns:xlink="http://www.w3.org/1999/xlink">
    <!-- Generator: Sketch 59.1 (86144) - https://sketch.com -->
    <title>照片</title>
    <desc>Created with Sketch.</desc>
    <g id="掌汇大宗" stroke="none" stroke-width="1" fill="none" fill-rule="evenodd">
        <g id="icon" transform="translate(-160.000000, -44.000000)" fill-rule="nonzero">
            <g id="编组" transform="translate(37.000000, 33.000000)">
                <g id="照片" transform="translate(121.000000, 9.000000)">
                    <rect id="矩形" fill="#000000" opacity="0" x="0" y="0" width="24" height="24"></rect>
                    <path d="M4.32,4.32 L4.32,19.68 L19.68,19.68 L19.68,4.32 L4.32,4.32 Z M4.32,2.4 L19.68,2.4 C20.7403867,2.4 21.6,3.25961328 21.6,4.32 L21.6,19.68 C21.6,20.7403867 20.7403867,21.6 19.68,21.6 L4.32,21.6 C3.25961328,21.6 2.4,20.7403867 2.4,19.68 L2.4,4.32 C2.4,3.25961328 3.25961328,2.4 4.32,2.4 Z" id="形状" fill="#666666"></path>
                    <path d="M9.6144,12.25776 L4.68336,19.31376 L3.10992,18.2136 L8.36112,10.70016 C8.60155764,10.3560972 8.98015196,10.1340703 9.39780716,10.0921941 C9.81546236,10.0503179 10.2306003,10.1927612 10.53456,10.48224 L20.22,19.70736 L18.89568,21.09744 L9.61488,12.25776 L9.6144,12.25776 Z" id="路径" fill="#666666"></path>
                    <path d="M18.03216,15.47664 L16.47696,17.64624 L14.91648,16.52688 L16.79328,13.90944 C17.0516068,13.5490734 17.4615449,13.3278066 17.904564,13.3096171 C18.3475831,13.2914275 18.7742805,13.4783436 19.06128,13.81632 L21.72912,16.2528 L20.43408,17.67024 L18.03216,15.47664 L18.03216,15.47664 Z" id="路径" fill="#666666"></path>
                    <path d="M12.96,10.08 C12.96,10.87529 13.60471,11.52 14.4,11.52 C15.19529,11.52 15.84,10.87529 15.84,10.08 C15.84,9.28470996 15.19529,8.64 14.4,8.64 C13.60471,8.64 12.96,9.28470996 12.96,10.08 Z" id="路径" fill="#666666"></path>
                </g>
            </g>
        </g>
    </g>
</svg>