<?xml version="1.0" encoding="UTF-8"?>
<svg width="21px" height="21px" viewBox="0 0 21 21" version="1.1" xmlns="http://www.w3.org/2000/svg" xmlns:xlink="http://www.w3.org/1999/xlink">
    <!-- Generator: Sketch 59.1 (86144) - https://sketch.com -->
    <title>超链接</title>
    <desc>Created with Sketch.</desc>
    <g id="掌汇大宗" stroke="none" stroke-width="1" fill="none" fill-rule="evenodd">
        <g id="01专栏-发布-新建文章" transform="translate(-88.000000, -449.000000)" fill-rule="nonzero">
            <g id="编组" transform="translate(19.000000, 439.000000)">
                <g id="超链接" transform="translate(67.000000, 9.000000)">
                    <rect id="矩形" fill="#000000" opacity="0" x="0" y="0" width="24" height="24"></rect>
                    <path d="M11.2015889,7.74577955 C10.7260237,8.12075851 10.0448369,8.07940304 9.618128,7.6496462 C9.19141909,7.21988937 9.15491291,6.53842546 9.53326713,6.06554121 L12,3.57497517 C14.337908,1.31694823 18.0541297,1.34924125 20.3524442,3.64755579 C22.6507588,5.94587033 22.6830518,9.66209201 20.4250248,12 L17.8748759,14.5024826 C17.5836466,14.8425535 17.1263733,14.9906835 16.6910598,14.8859703 C16.2557463,14.7812571 15.915863,14.4413738 15.8111498,14.0060603 C15.7064366,13.5707468 15.8545667,13.1134735 16.1946375,12.8222443 L18.6971201,10.3197617 C20.0096549,8.91117494 19.970926,6.7161404 18.6095179,5.35473232 C17.2481098,3.99332425 15.0530753,3.95459539 13.6444886,5.26713009 L11.2015889,7.74577955 Z M12.8460775,16.2184707 C13.1232086,15.8435512 13.5935297,15.6646817 14.0497622,15.760693 C14.5059948,15.8567043 14.8643333,16.2099601 14.9668521,16.6647746 C15.0693709,17.1195891 14.8972382,17.5924173 14.5263158,17.8748759 L12.0119166,20.3892751 C9.66109122,22.5030183 6.06866866,22.4127929 3.82691548,20.183705 C1.5851623,17.9546171 1.47458491,14.3627634 3.57497517,12 L6.08937438,9.53326713 C6.35758964,9.14408015 6.83047328,8.95020086 7.29469763,9.03909226 C7.75892198,9.12798367 8.12673131,9.48284196 8.23219916,9.94358317 C8.33766701,10.4043244 8.16085602,10.8838512 7.7815293,11.1658391 L5.25521351,13.6802383 C3.9426788,15.0888251 3.98140766,17.2838596 5.34281574,18.6452677 C6.70422382,20.0066758 8.89925835,20.0454046 10.3078451,18.7328699 L12.8460775,16.2184707 Z M9.87884805,15.8252234 C9.5876188,16.1652943 9.1303455,16.3134243 8.69503202,16.2087111 C8.25971854,16.1039979 7.9198352,15.7641146 7.81512202,15.3288011 C7.71040885,14.8934876 7.85853886,14.4362143 8.19860974,14.1449851 L14.0973188,8.24627606 C14.5701215,7.8413781 15.2749087,7.86860093 15.7150705,8.30876269 C16.1552322,8.74892446 16.1824551,9.45371169 15.7775571,9.9265144 L9.87884805,15.8252234 Z" id="形状" fill="#666666"></path>
                </g>
            </g>
        </g>
    </g>
</svg>