<?xml version="1.0" encoding="UTF-8"?>
<svg width="26px" height="26px" viewBox="0 0 26 26" version="1.1" xmlns="http://www.w3.org/2000/svg" xmlns:xlink="http://www.w3.org/1999/xlink">
    <!-- Generator: Sketch 59.1 (86144) - https://sketch.com -->
    <title>上移</title>
    <desc>Created with Sketch.</desc>
    <g id="掌汇大宗" stroke="none" stroke-width="1" fill="none" fill-rule="evenodd">
        <g id="04专栏-发布-添加视频" transform="translate(-191.000000, -397.000000)" fill-rule="nonzero">
            <g id="上移" transform="translate(192.000000, 398.000000)">
                <rect id="矩形" fill="#000000" opacity="0" x="0" y="0" width="24" height="24"></rect>
                <rect id="矩形" stroke="#EEEEEE" x="0" y="0" width="24" height="24" rx="4"></rect>
                <path d="M12.8823529,6.27295703 C12.7058824,6.11120472 12.3529412,6.03032856 12.0882353,6.03032856 C11.8235294,5.9494524 11.5588235,6.03032856 11.2941176,6.27295703 L6.26470588,10.8828981 C5.91176471,11.2064027 5.91176471,11.6916596 6.26470588,12.0151643 C6.61764706,12.3386689 7.14705882,12.3386689 7.5,12.0151643 L11.1176471,8.69924179 L11.1176471,17.1912384 C11.1176471,17.6764954 11.4705882,18 12,18 C12.5294118,18 12.8823529,17.6764954 12.8823529,17.1912384 L12.8823529,8.61836563 L16.5,11.9342881 C16.8529412,12.2577928 17.3823529,12.2577928 17.7352941,11.9342881 C18.0882353,11.6107835 18.0882353,11.1255265 17.7352941,10.8020219 L12.8823529,6.27295703 L12.8823529,6.27295703 Z" id="形状" fill="#666666"></path>
            </g>
        </g>
    </g>
</svg>