<?xml version="1.0" encoding="UTF-8"?>
<svg width="26px" height="26px" viewBox="0 0 26 26" version="1.1" xmlns="http://www.w3.org/2000/svg" xmlns:xlink="http://www.w3.org/1999/xlink">
    <!-- Generator: Sketch 59.1 (86144) - https://sketch.com -->
    <title>下移</title>
    <desc>Created with Sketch.</desc>
    <g id="掌汇大宗" stroke="none" stroke-width="1" fill="none" fill-rule="evenodd">
        <g id="04专栏-发布-添加视频" transform="translate(-239.000000, -149.000000)" fill-rule="nonzero">
            <g id="下移" transform="translate(252.000000, 162.000000) scale(1, -1) translate(-252.000000, -162.000000) translate(240.000000, 150.000000)">
                <rect id="矩形" fill="#000000" opacity="0" x="0" y="0" width="24" height="24"></rect>
                <rect id="矩形" stroke="#EEEEEE" x="0" y="0" width="24" height="24" rx="4"></rect>
                <path d="M12.8823529,6.29779412 C12.7058824,6.12132353 12.3529412,6.03308824 12.0882353,6.03308824 C11.8235294,5.94485294 11.5588235,6.03308824 11.2941176,6.29779412 L6.26470588,11.3272059 C5.91176471,11.6801471 5.91176471,12.2095588 6.26470588,12.5625 C6.61764706,12.9154412 7.14705882,12.9154412 7.5,12.5625 L11.1176471,8.94485294 L11.1176471,18.2095588 C11.1176471,18.7389706 11.4705882,19.0919118 12,19.0919118 C12.5294118,19.0919118 12.8823529,18.7389706 12.8823529,18.2095588 L12.8823529,8.85661765 L16.5,12.4742647 C16.8529412,12.8272059 17.3823529,12.8272059 17.7352941,12.4742647 C18.0882353,12.1213235 18.0882353,11.5919118 17.7352941,11.2389706 L12.8823529,6.29779412 L12.8823529,6.29779412 Z" id="形状" fill="#666666"></path>
            </g>
        </g>
    </g>
</svg>