<?xml version="1.0" encoding="UTF-8"?>
<svg width="21px" height="18px" viewBox="0 0 21 18" version="1.1" xmlns="http://www.w3.org/2000/svg" xmlns:xlink="http://www.w3.org/1999/xlink">
    <!-- Generator: Sketch 59.1 (86144) - https://sketch.com -->
    <title>多行文本</title>
    <desc>Created with Sketch.</desc>
    <g id="掌汇大宗" stroke="none" stroke-width="1" fill="none" fill-rule="evenodd">
        <g id="icon" transform="translate(-53.000000, -45.000000)" fill-rule="nonzero">
            <g id="编组" transform="translate(37.000000, 33.000000)">
                <g id="多行文本" transform="translate(16.000000, 11.000000)">
                    <rect id="矩形" fill="#000000" opacity="0" x="0" y="0" width="20.6347607" height="20.6347607"></rect>
                    <path d="M7.32068362,17.8087459 L7.32068362,3.12454293 L1.03633427,3.12454293 C0.463982658,3.12454293 0,2.6489478 0,2.06227147 C0,1.47559514 0.463982658,1 1.03633427,1 L15.9636657,1 C16.5360173,1 17,1.47559514 17,2.06227147 C17,2.6489478 16.5360173,3.12454293 15.9636657,3.12454293 L9.6495761,3.12454293 L9.6495761,17.8087459 C9.6495761,18.4666523 9.12926001,19 8.48741758,19 C8.17840198,19.0012378 7.88162562,18.8762828 7.66268803,18.6527457 C7.44375045,18.4292087 7.32068122,18.125498 7.32068362,17.8087459 Z M19.2762486,17 C19.6889778,17.0597324 20,17.4894686 20,18 C20,18.5105314 19.6889778,18.9402676 19.2762486,19 L19.2762486,19 L11.7237514,19 C11.3110222,18.9402676 11,18.5105314 11,18 C11,17.4894686 11.3110222,17.0597324 11.7237514,17 L11.7237514,17 Z M20.1845172,13.3173856 C20.6458804,13.3713236 20.9960955,13.8028471 20.9960955,14.3173856 C20.9960955,14.831924 20.6458804,15.2634475 20.1845172,15.3173856 L20.1845172,15.3173856 L11.8076739,15.3173856 C11.3463107,15.2634475 10.9960955,14.831924 10.9960955,14.3173856 C10.9960955,13.8028471 11.3463107,13.3713236 11.8076739,13.3173856 L11.8076739,13.3173856 Z" id="形状" fill="#666666"></path>
                </g>
            </g>
        </g>
    </g>
</svg>