<?xml version="1.0" encoding="UTF-8"?>
<svg width="24px" height="19px" viewBox="0 0 24 19" version="1.1" xmlns="http://www.w3.org/2000/svg" xmlns:xlink="http://www.w3.org/1999/xlink">
    <!-- Generator: Sketch 59.1 (86144) - https://sketch.com -->
    <title>视频</title>
    <desc>Created with Sketch.</desc>
    <g id="掌汇大宗" stroke="none" stroke-width="1" fill="none" fill-rule="evenodd">
        <g id="icon" transform="translate(-212.000000, -44.000000)" fill-rule="nonzero">
            <g id="编组" transform="translate(37.000000, 33.000000)">
                <g id="视频" transform="translate(175.000000, 9.000000)">
                    <rect id="矩形" fill="#000000" opacity="0" x="0" y="0" width="24" height="24"></rect>
                    <path d="M-1.32178224e-06,7.67599999 C-1.32178224e-06,4.91799998 2.23866666,2.68266509 4.99999868,2.68266509 L13.42,2.68266509 C16.0634059,2.68059224 18.2511959,4.73748881 18.412,7.37599999 L22.532,5.19799999 C22.8417657,5.03482832 23.21426,5.04529741 23.514372,5.22560992 C23.8144839,5.40592243 23.9986236,5.72988871 23.9999987,6.07999999 L23.9999987,17.74 C24.0004062,18.0908738 23.8166469,18.416221 23.5159437,18.5970253 C23.2152406,18.7778295 22.841712,18.7875636 22.532,18.6226667 L18.364,16.418 C17.9893138,18.8581173 15.8893831,20.6592717 13.4206667,20.6580007 L4.99999868,20.6580007 C3.67333334,20.6580007 2.40199999,20.132 1.46466666,19.1953333 C0.527335673,18.259663 0.00042196025,16.9897458 -1.32178224e-06,15.6653333 L-1.32178224e-06,13.89 C-0.00058033102,13.5325085 0.189972379,13.2019742 0.499631384,13.0233353 C0.80929039,12.8446965 1.19081756,12.8452043 1.49999868,13.0246667 C1.80933333,13.2033333 1.99999868,13.5326667 1.99999868,13.89 L1.99999868,15.6653333 C2.00053025,16.4604524 2.31689871,17.2227948 2.87950789,17.7846539 C3.44211706,18.3465129 4.2048809,18.6618639 4.99999868,18.6613333 L13.42,18.6613333 C15.0766667,18.6613333 16.42,17.32 16.42,15.6653333 L16.42,14.7893333 C16.419343,14.4380635 16.6032828,14.1122779 16.9043983,13.9313901 C17.2055137,13.7505022 17.5795217,13.741114 17.8893333,13.9066667 L21.9999987,16.082 L21.9999987,7.74 L17.8893333,9.91333334 C17.5795165,10.0768293 17.2067846,10.066531 16.9064681,9.88617753 C16.6061515,9.70582402 16.4219211,9.38164155 16.4206667,9.03133334 L16.4206667,7.67599999 C16.4201364,6.8808809 16.1037679,6.11853849 15.5411588,5.55667946 C14.9785496,4.99482043 14.2157858,4.67946939 13.4206667,4.68 L4.99999868,4.68 C4.2048809,4.67946939 3.44211706,4.99482043 2.87950789,5.55667946 C2.31689871,6.11853849 2.00053025,6.8808809 1.99999868,7.67599999 L1.99999868,9.79600001 C1.99999868,10.3482847 1.55228474,10.796 0.999998678,10.796 C0.447715254,10.796 -1.32178224e-06,10.3482847 -1.32178224e-06,9.79600001 L-1.32178224e-06,7.67599999 Z" id="路径" fill="#666666"></path>
                    <path d="M3.53800001,9.00666666 C3.53947214,7.47378447 4.78311751,6.23222826 6.31600001,6.23333261 L8.95333334,6.23333261 C10.4656141,6.26130275 11.6771689,7.49479421 11.678,9.00733334 C11.6771689,10.5198725 10.4656141,11.7533639 8.95333334,11.7813341 L6.31600001,11.7813341 C5.57975898,11.781864 4.87346169,11.4899021 4.35248559,10.9696762 C3.83150949,10.4494502 3.53853025,9.74357437 3.53800001,9.00733334 L3.53800001,9.00666666 Z M6.31600001,8.23133334 C6.0320006,8.22151914 5.76524287,8.36732606 5.62016361,8.61167006 C5.47508436,8.85601406 5.47476606,9.16001941 5.61933333,9.40466667 C5.76399998,9.64866668 6.03133334,9.79400002 6.31600001,9.78400001 L8.95333334,9.78400001 C9.3697652,9.76674219 9.69847996,9.42412265 9.69847996,9.00733334 C9.69847996,8.59054403 9.3697652,8.24792448 8.95333334,8.23066666 L6.31600001,8.23066666 L6.31600001,8.23133334 Z" id="形状" fill="#666666"></path>
                </g>
            </g>
        </g>
    </g>
</svg>